<?xml version="1.0" encoding="UTF-8"?>
<svg width="592px" height="249px" viewBox="0 0 592 249" version="1.1" xmlns="http://www.w3.org/2000/svg" xmlns:xlink="http://www.w3.org/1999/xlink">
    <!-- Generator: Sketch 52.6 (67491) - http://www.bohemiancoding.com/sketch -->
    <title>Artboard</title>
    <desc>Created with Sketch.</desc>
    <g id="Artboard" stroke="none" stroke-width="1" fill="none" fill-rule="evenodd">
        <g id="Group" transform="translate(3.000000, 4.000000)">
            <path d="M116.295833,1.42108547e-14 C100.84002,1.3278443 89.3708488,3.34806981 81.8883196,6.06067654 C29.5453812,25.0363201 0.5,65.5711444 0.5,120.305538 C0.5,165.92442 22.0542401,202.958872 57.8993511,223.964931 C74.9721238,233.969969 94.4376179,239.518684 116.295833,240.611076 L476.820683,240.611076 C488.093324,239.029338 496.038905,237.561923 500.657427,236.208828 C524.982549,229.082266 542.554948,216.451768 557.102128,199.23555 C575.792338,177.116162 585.05484,150.806158 584.889635,120.305538 C585.944588,89.4711313 575.97249,62.3632295 554.973342,38.9818327 C533.974193,15.6004358 507.923307,2.60649161 476.820683,1.42108547e-14 L116.295833,1.42108547e-14 Z" id="Path" stroke="#100E0F" stroke-width="7"></path>
            <path d="M180.297398,26.1856495 L126.808899,26.1856495 C116.282424,26.7633613 108.962038,27.3980168 104.847742,28.0896159 C97.6342097,29.3021863 92.1806771,31.3241159 87.7883227,33.2037886 C83.1654143,35.1821251 76.0563072,38.5088179 69.7736255,43.2737825 C66.5778451,45.6975532 61.8531476,50.1593342 55.5995327,56.6591255 C50.5583769,62.6616051 47.2115355,66.9771929 45.5590086,69.6058889 C40.696872,77.340153 39.0811464,83.8490378 37.0396448,88.6355597 C33.8164609,96.1926637 32.2048689,107.825711 32.2048689,123.534702 C33.4500681,140.695475 35.868465,153.015475 39.4600599,160.494703 C48.7097625,179.756517 65.5505508,197.046624 76.7960984,204.174394 C85.6490998,209.785696 98.6893958,215.188271 115.778537,217.400254 C127.315921,218.893629 148.822208,218.893629 180.297398,217.400254 L180.297398,183.08444 C153.927733,183.08444 136.098233,183.08444 126.808899,183.08444 C120.242521,183.08444 105.738262,178.468956 94.9197907,169.07995 C86.1976229,161.51026 80.5175254,149.545549 78.3423945,144.356828 C76.2728054,139.419874 75.0480442,131.481861 74.668111,120.542791 C75.4402078,110.429352 76.664969,103.028926 78.3423945,98.3415152 C83.0638521,85.1478366 91.9510109,74.8970422 100.974311,69.6058889 C106.317471,66.4727255 113.499762,62.7751582 122.605989,61.0908589 C127.707994,60.1471857 135.319624,60.0166287 145.786278,59.8375269 C151.999308,59.7312116 163.503015,59.7312116 180.297398,59.8375269 L180.297398,26.1856495 Z" id="Path-2" fill="#1D4055"></path>
            <polygon id="Path-3" fill="#1D4055" points="249.234543 26.1856495 290.057764 26.1856495 290.057764 217.520285 249.234543 217.520285"></polygon>
            <polygon id="Path-4" fill="#1D4055" points="345.178101 26.1856495 521.006932 26.1856495 521.006932 60.4486222 456.51904 60.4486222 456.51904 217.520285 411.312176 217.520285 411.312176 60.4486222 345.178101 60.4486222"></polygon>
        </g>
    </g>
</svg>