<?xml version="1.0" standalone="no"?>
<!DOCTYPE svg PUBLIC "-//W3C//DTD SVG 20010904//EN"
 "http://www.w3.org/TR/2001/REC-SVG-20010904/DTD/svg10.dtd">
<svg version="1.0" xmlns="http://www.w3.org/2000/svg"
 width="784.000000pt" height="784.000000pt" viewBox="0 0 784.000000 784.000000"
 preserveAspectRatio="xMidYMid meet">
<metadata>
Created by potrace 1.11, written by Peter Selinger 2001-2013
</metadata>
<g transform="translate(0.000000,784.000000) scale(0.100000,-0.100000)"
fill="#000000" stroke="none">
<path d="M4626 7753 c-1 -1 -58 -5 -126 -9 -202 -10 -194 -10 -415 -29 -56 -5
-154 -15 -200 -21 -16 -2 -52 -6 -78 -9 -39 -5 -139 -24 -257 -50 -69 -15
-307 -91 -375 -120 -171 -72 -233 -100 -252 -113 -13 -8 -23 -12 -23 -9 0 3
-57 -26 -127 -63 -182 -96 -197 -104 -203 -110 -11 -11 -69 -50 -75 -50 -5 0
-141 -96 -161 -115 -7 -5 -31 -26 -55 -45 -98 -79 -503 -477 -543 -533 -11
-15 -29 -38 -40 -51 -89 -98 -306 -385 -306 -404 0 -6 -3 -12 -8 -14 -12 -5
-75 -116 -124 -219 -63 -130 -68 -143 -137 -327 -34 -90 -75 -198 -92 -240
-17 -42 -32 -81 -33 -87 -2 -5 -10 -35 -19 -65 -9 -30 -18 -67 -21 -82 -3 -15
-7 -32 -10 -37 -4 -5 -8 -22 -10 -38 -3 -24 -15 -93 -30 -169 -2 -12 -7 -45
-11 -75 -3 -30 -8 -72 -11 -94 -27 -199 -39 -729 -21 -915 13 -127 15 -141 21
-190 3 -25 8 -65 11 -90 8 -76 15 -121 36 -245 11 -66 22 -129 24 -140 1 -11
10 -56 20 -100 9 -44 18 -84 19 -90 1 -5 5 -16 9 -22 5 -7 6 -13 3 -13 -3 0
-1 -11 4 -25 5 -14 12 -36 14 -48 7 -41 67 -212 95 -272 15 -33 34 -75 42 -92
8 -18 17 -33 21 -33 5 0 8 -6 8 -14 0 -8 23 -53 50 -101 28 -48 50 -88 50 -90
0 -2 18 -31 40 -64 22 -33 40 -62 40 -65 0 -9 112 -171 121 -174 5 -2 9 -8 9
-13 0 -9 20 -38 93 -134 29 -39 139 -177 152 -191 5 -7 30 -36 55 -65 160
-189 404 -429 580 -571 77 -62 212 -163 230 -171 8 -4 29 -16 45 -27 42 -27
211 -121 265 -147 84 -40 184 -85 230 -102 25 -10 54 -21 65 -26 11 -4 25 -9
30 -11 6 -2 64 -21 130 -44 150 -52 277 -85 510 -136 11 -2 61 -11 110 -19 50
-8 100 -17 112 -19 12 -3 48 -7 80 -11 32 -3 74 -8 93 -10 331 -46 1312 -45
2280 0 85 4 167 7 183 6 l27 -1 0 87 c1 107 1 1204 0 1253 l0 36 -1087 0
c-599 0 -1113 4 -1143 7 -71 9 -107 16 -150 27 -19 5 -39 10 -45 11 -5 1 -30
8 -55 16 -25 7 -52 16 -60 18 -97 23 -403 160 -515 230 -22 14 -47 28 -55 32
-16 7 -78 47 -95 61 -5 4 -32 23 -60 42 -27 19 -55 40 -61 45 -6 6 -30 26 -54
45 -70 56 -278 270 -263 270 2 0 -8 12 -22 27 -14 15 -25 31 -25 34 0 3 -9 17
-21 30 -71 81 -250 394 -332 579 -35 79 -66 159 -71 181 -3 13 -14 58 -25 99
-21 79 -28 120 -47 260 -11 86 -13 106 -19 180 -14 172 -19 342 -10 410 2 19
7 69 10 110 3 41 8 82 10 90 3 8 7 38 10 65 6 66 14 120 25 175 7 38 18 97 21
122 1 10 34 130 52 193 8 28 22 68 32 90 9 22 24 58 33 80 21 49 98 202 137
270 117 206 303 426 485 576 120 99 120 99 126 99 3 0 20 11 38 25 18 14 38
25 44 25 7 0 12 4 12 8 0 5 19 17 43 27 23 10 49 24 57 31 26 22 211 111 325
157 110 45 275 99 275 91 0 -3 13 2 29 10 16 9 30 13 33 11 2 -3 20 0 39 5 19
5 48 12 64 14 17 3 39 8 50 10 20 3 96 11 205 21 30 3 122 7 204 9 81 3 150 7
153 10 3 2 16 1 29 -4 13 -5 24 -6 24 -2 0 5 370 9 821 10 452 1 824 3 826 6
7 6 6 1327 -1 1333 -5 5 -2135 11 -2140 6z"/>
</g>
</svg>
